<svg xmlns="http://www.w3.org/2000/svg" viewBox="0 0 458.98 605.44"><defs><style>.cls-1,.cls-2{fill:#010001;}.cls-2{fill-rule:evenodd;}</style></defs><g id="Capa_2" data-name="Capa 2"><g id="Capa_1-2" data-name="Capa 1"><path class="cls-1" d="M91.4,185.45v53.73h58.66v37.06l-18.22-12.58v-5H73.14V170.45s34.69-1,65.75-53.2H314.73V262.74l-19.88,6v-133H149.43S132.13,175.81,91.4,185.45Z"/><path class="cls-1" d="M131.72,329l.12,31.72H38.31V502.91h361.5V358.84H314.73V336.31s-9.49-6.54-19.88-1.06v40h82.49V484.44H60.79V377.9h89.27V333.06S137.83,328.23,131.72,329Z"/><path class="cls-2" d="M185.87,2.11c9.38-1.6,16.75,2.42,19.24,8,11.46,25.47-34.19,32.81-33.39,6.9C172,8.33,175.9,3.83,185.87,2.11Zm4,29.17c12.53.54,9-31-4-27C176.08,7.22,180.84,30.89,189.83,31.28Z"/><path class="cls-2" d="M253.78,1.59c8.06,2.16,18.49,4.35,27.17,4.24a39.06,39.06,0,0,0-.57,9c-2.7-2.8-3.14-7.68-9.07-7.43-.16,6.08-5.4,17-3.95,23.34.67,2.93,3.24,2.67,3.95,5.29-6-2.07-11-1.88-17.53-3.19,9.5-2.57,6.26-17.1,9-26-4.29-3.91-9.63,1.94-10.16,3.19C250.3,8.43,254.85,4.09,253.78,1.59Z"/><path class="cls-2" d="M234.55,0h11.87c.08,1.49-1.39,1.52-2.83,1.59-4.5,7.36,1.69,18.39-4,25.46-4,5-16.15,6.23-21.51,1.05-6-5.82.12-21.69-6.79-27.58V0h4.53V.52c2.49.12,3.91.83,5.66-.52h5.1c.18,2.12-2.66,1.39-3.4,2.65-.51,8.59-2.75,23,4.52,24.92,12.83,3.41,11.57-14,10.2-24.92C237.43,1.18,233.91,2.52,234.55,0Z"/><path class="cls-2" d="M159.85,7.42c1.25,2.53,3,7.47,2.82,9.55-3.29.14-3.4-4.07-6.79-4.78-17.38-3.59-12.25,26.57.55,27,5,.19,10-4.26,10.78-10.6,2,1.12,1,5.05,2.26,6.89-11.54,11.81-37.25,7.8-32.83-12.72C138.76,13,150.2,11.28,159.85,7.42Z"/><path class="cls-2" d="M304.14,14.85c6.31,6.36,22.9,5.24,23.2,15.91.25,8.51-13.79,11.75-17.55,4.24,1.87,0,2.82.89,5.1.52,4.26-1.94,6.91-11.72.58-13.26-2.67,1.79-4.24,6.28-6.23,10.6-1.81,4-4.8,9.3-4.53,12.21.23,2.4,2.73,2.59,2.26,4.78-4.37-2.63-11.29-5.68-14.71-7.43-.5-2.19,2.53.62,3.39-1.06C299.83,34.27,308.11,24.48,304.14,14.85Z"/><path class="cls-2" d="M121.92,21.74c.72,3,4.18,5.84,3.39,8.49-2.56-.2-2.66-2.88-5.65-3.18s-6.85,1.13-6.79,4.77c.13,7.8,8.91,2.16,16.41,3.7a8.94,8.94,0,0,1,6.78,9c-.14,9.39-9.42,8.93-15.84,14.31-1.55-3.3-3.87-5.9-5.08-9.54,3.16-1.08,3.5,3.65,7.34,4.25,6.88,1.07,11.33-6.15,5.66-10.08-11.94,1.65-20.58.11-20.37-8.48S117,26.75,121.92,21.74Z"/><path class="cls-2" d="M335.27,30.76c4.23,6.13,23.52,10.3,20.38,21.73-.76,2.75-4.94,5.85-9.63,4.25-1.38,3.94-2.69,10.76-1.12,15.38.7,2.12,3.11,2.46,2.26,4.25-7.93-.51-11.69-11-8.5-20.7-.07-2.05-2.28-2.07-2.83-3.7-2.38,2.36-3.93,5.48-5.65,8.49,0,1.9,1.4,2.56,1.69,4.23-3.94-1.65-8.9-6.82-13.58-9.54,1.23-1.21,1.93.43,4,0C328.19,48.87,338.81,39.27,335.27,30.76Zm9.06,9c-2.45,3.53-5.33,6.67-7.36,10.6C343.5,59.62,354.25,42.86,344.33,39.77Z"/><path class="cls-2" d="M80.61,53c24.8-3.88,21.83,36.49-2.83,33.4C68.45,85.27,61.43,74.86,65.9,64.16,67.72,59.82,73.86,54.07,80.61,53ZM70.43,62C67.19,74.68,91.28,89.7,93.06,75.84c1.08-8.42-11.34-19.51-17.55-18C73.43,58.3,71,59.68,70.43,62Z"/><path class="cls-2" d="M369.23,57.27c3.16,4.64,7.64,8,10.76,12.74-2.26.51-1.72-1.6-4-1.07-7.26,4.33-12.7,10.38-18.11,16.44-.32,2,1.73,3.07.56,4.25-3.29-4.2-8.86-9-10.75-12.74,1.75,0,1.61,1.66,4,1.06,7.14-3.92,11.8-10.16,17.55-15.38C369.83,60.24,368.1,58.47,369.23,57.27Z"/><path class="cls-2" d="M383.94,74.77c3.59,1.75,3.94,6.56,7.36,8.48-2.91,7.53-7.42,13.56-10.77,20.69,8.24-.62,14.36-3.18,22.65-3.71,1.21,3.46,3.82,5.6,5.67,8.48-1.37,1.29-1.51-1.29-4-.52-4.55,4.42-19.66,10.83-18.68,19.08-3.29-3.46-5.63-7.8-8.49-11.66,9.26,1.1,12.87-7.29,18.68-11.14-8.79.62-16.8,4.74-24.91,4.24,1.43-7.74,7.8-15.29,11.33-22.81C377,89.15,371.32,92.47,367,97.05c-.4,1.93,1.41,2.94,0,4.23-1.83-3.75-4.8-6.44-6.78-10.06,10.38,1.9,17.53-7.33,24.35-12.2C385,77,383.81,76.47,383.94,74.77Z"/><path class="cls-2" d="M58,98.64c-.81-2.56,1.42-2.78,1.13-5.31-.63-5.4-10-9.53-13-3.18,6.1,5.6,12.39,11,19.8,15.38,3,.73,2.37-2,5.08-1.59-3.44,4.71-7.23,9.12-10.73,13.79,1-9.13-11.29-13.41-17.56-19.09-2.62-.53-3.42.68-5.09,1-.38-1.61,2.22-4.49,4.54-5.29.3-9.83,18.14-21.15,21.5-9A12,12,0,0,1,58,98.64Z"/><path class="cls-2" d="M33.08,107.12c2.61.31-.16,2.61,1.13,3.72,4.79,5.64,19.07,6.74,20.93,15.38,1.33,6.1-1.81,14.47-6.78,17.49-8.75,5.34-16.94-4.13-24.9-5.83-3.05-.74-2.38,2-5.1,1.59,2.24-4.6,5.29-8.47,6.23-14.32,2,0,.44,3.47,1.69,4.25,5.87,2.53,13.07,10,20.38,7.95,5.31-1.47,6.92-7.64,4-12.2-3.29-5.06-12.68-6.69-17.54-9.54-2.43,0-2.41,2.34-4.54,2.64C28.67,115.28,32.51,111.44,33.08,107.12Z"/><path class="cls-2" d="M411.11,119.32c2,8.59,7.47,13.86,9,22.8-3.43-.72-4.41,3-6.78,1.59,3.91-3,2.32-7.36.56-11.67-4,.65-6.5,2.74-10.18,3.72,1.17,3.51,2.92,6.47,6.79,7.43-2.74,1.32-5.52,2.6-8.49,3.71,2.39-3.48.84-6.32-.56-10.07-3,1.4-6,2.82-9.06,4.23-.57,7.07,3.22,10.06,9.06,11.14-1.63,1.67-5,1.69-7.36,2.66-4.75-6.69-6-16.66-10.19-23.87,2.24-.14,1.73,2.27,4,2.12C397.11,130.08,409.39,127.67,411.11,119.32Z"/><path class="cls-2" d="M421.85,152.2h1.71c-.79,9.09,10,30.45-4,30.24-3.34-.06-4.72-2-6.79-4.25-5.39,3.81-10.81,7.56-11.89,15.39-6.3-8.82,1.31-18,7.93-21.23v-4.77c-5.19.8-11,1-11.33,6.37-1.73-4.92-1.7-11.49-4-15.91,6.95,5.63,20.54.22,27.73-2.12C421,154.24,422.31,154,421.85,152.2Zm-11.31,14.86c.11,3.26,1.67,5.14,3.39,6.89,7.18.94,11.79-2.9,9.63-9C418.5,165,415,166.46,410.54,167.06Z"/><path class="cls-2" d="M43.83,152.73h1.7c-.93,5.68-.58,9.33-4,12.2-4.11,3.48-13.3,1.08-14.16,7.95,4.45,2.23,11,2.91,13.59-1-1.13,5.3-3.33,9.6-3.4,15.91-2.36-4.91-17.33-10.64-24.89-9-2.54.56-2.29,3.19-4.54,2.66,4.2-7,1.71-26.05,11.33-27.05,4.45-.45,7.65,2.75,8.49,7.43C35.06,160.42,42.17,159.14,43.83,152.73Zm-30.56,17c3.94,1.27,8.48,2,12.45,3.18C31.62,162.74,12,159.14,13.27,169.7Z"/><path class="cls-2" d="M411.11,189.32c27.7-6.21,24.87,42.27-.57,34C396.67,218.74,395.3,192.87,411.11,189.32Zm-9.62,17c-.64,11.69,24.9,10.82,27.16,1.58,2.09-8.48-5.11-10.61-14.72-9.54C407,199.11,401.84,199.8,401.49,206.3Z"/><path class="cls-2" d="M22.89,190.39c2.08.07,8.32,5.43,11.89,1.05,6,13.18,2.62,32.88-11.89,33.41-15.9.6-18-16.2-15.84-31.27,3.23,1.23,6.06-.15,9.61,1-2.28,3.55-6.51,2.85-7.91,6.36-6.59,16.45,30,21.41,26.57,1.06-4.31-2.86-11.52-.56-12.43,3.19C22.69,199.56,25.14,195.22,22.89,190.39Z"/><path class="cls-1" d="M160.82,363.51h5.74v1.15H162.2v3.54h4v1.14h-4v4.82h-1.38Z"/><path class="cls-1" d="M173.68,363.51v6.3c0,2.39,1.06,3.4,2.48,3.4,1.59,0,2.6-1,2.6-3.4v-6.3h1.39v6.21c0,3.27-1.73,4.61-4,4.61s-3.83-1.24-3.83-4.55v-6.27Z"/><path class="cls-1" d="M186.32,374.16V363.51h1.51l3.41,5.39a29.44,29.44,0,0,1,1.91,3.46l0,0c-.12-1.42-.15-2.72-.15-4.38v-4.45h1.29v10.65h-1.39l-3.38-5.41a32.78,32.78,0,0,1-2-3.55h-.05c.08,1.35.11,2.63.11,4.4v4.55Z"/><path class="cls-1" d="M200.51,363.65a19.35,19.35,0,0,1,2.93-.22,6.09,6.09,0,0,1,4.31,1.33,4.9,4.9,0,0,1,1.51,3.82,5.62,5.62,0,0,1-1.54,4.14,6.54,6.54,0,0,1-4.71,1.54,22,22,0,0,1-2.5-.13Zm1.38,9.42a9,9,0,0,0,1.39.08c2.94,0,4.54-1.65,4.54-4.52,0-2.51-1.41-4.11-4.32-4.11a7.74,7.74,0,0,0-1.61.14Z"/><path class="cls-1" d="M216.33,370.81l-1.11,3.35H213.8l3.62-10.65h1.66l3.64,10.65h-1.47l-1.14-3.35Zm3.49-1.07-1-3.07c-.24-.7-.39-1.33-.55-1.95h0c-.16.64-.34,1.28-.54,1.93l-1,3.09Z"/><path class="cls-1" d="M228.07,363.65a19.21,19.21,0,0,1,2.92-.22,6.1,6.1,0,0,1,4.32,1.33,4.89,4.89,0,0,1,1.5,3.82,5.65,5.65,0,0,1-1.53,4.14,6.55,6.55,0,0,1-4.71,1.54,22,22,0,0,1-2.5-.13Zm1.38,9.42a9,9,0,0,0,1.39.08c2.94,0,4.53-1.65,4.53-4.52,0-2.51-1.4-4.11-4.31-4.11a7.74,7.74,0,0,0-1.61.14Z"/><path class="cls-1" d="M251.49,368.72c0,3.67-2.23,5.61-5,5.61s-4.79-2.18-4.79-5.4c0-3.38,2.11-5.6,4.95-5.6S251.49,365.56,251.49,368.72Zm-8.27.18c0,2.27,1.24,4.31,3.4,4.31s3.42-2,3.42-4.42c0-2.12-1.11-4.33-3.4-4.33S243.22,366.56,243.22,368.9Z"/><path class="cls-1" d="M269.73,369.17h-4.14V373h4.61v1.15h-6V363.51H270v1.15h-4.37V368h4.14Z"/><path class="cls-1" d="M275.78,374.16V363.51h1.5l3.41,5.39a29.44,29.44,0,0,1,1.91,3.46l0,0c-.13-1.42-.16-2.72-.16-4.38v-4.45h1.29v10.65h-1.39L279,368.75a34.56,34.56,0,0,1-2-3.55H277c.08,1.35.11,2.63.11,4.4v4.55Z"/><path class="cls-1" d="M180.76,379.16h0l-2.78,1.5-.42-1.65,3.49-1.87h1.85v16h-2.09Z"/><path class="cls-1" d="M204.67,391.6a9.26,9.26,0,0,0,1.75-.07,6.09,6.09,0,0,0,3.34-1.55,7.06,7.06,0,0,0,2.12-4.26h-.08a4.68,4.68,0,0,1-3.76,1.72,4.62,4.62,0,0,1-4.72-4.89,5.48,5.48,0,0,1,5.46-5.68c3.27,0,5.29,2.65,5.29,6.74a10.1,10.1,0,0,1-2.76,7.5,8,8,0,0,1-4.65,2.14,10.59,10.59,0,0,1-2,.12Zm.79-9.2c0,2,1.2,3.4,3.07,3.4a3.58,3.58,0,0,0,3.15-1.68,1.42,1.42,0,0,0,.2-.78c0-2.73-1-4.82-3.27-4.82C206.76,378.52,205.46,380.14,205.46,382.4Z"/><path class="cls-1" d="M235.47,379.16h-.05l-2.78,1.5-.41-1.65,3.49-1.87h1.84v16h-2.09Z"/><path class="cls-1" d="M257.93,389.07a4.56,4.56,0,0,1,3.18-4.28l0-.08a4,4,0,0,1-2.53-3.59c0-2.53,2.14-4.25,4.94-4.25,3.1,0,4.65,1.94,4.65,3.93a4,4,0,0,1-2.63,3.74v.07c2,.79,3.22,2.19,3.22,4.14,0,2.78-2.39,4.64-5.43,4.64C260,393.39,257.93,391.4,257.93,389.07Zm8.61-.1c0-1.94-1.35-2.88-3.51-3.49-1.87.54-2.88,1.77-2.88,3.29a3,3,0,0,0,3.19,3.05A2.89,2.89,0,0,0,266.54,389Zm-6-8c0,1.6,1.21,2.46,3.05,3a3.16,3.16,0,0,0,2.44-2.91,2.49,2.49,0,0,0-2.71-2.6A2.54,2.54,0,0,0,260.59,381Z"/><path class="cls-1" d="M163.23,397.46c-4.92-1.69-8.41-4.18-10.46-8.22a17,17,0,0,1-1.91-6,81.53,81.53,0,0,1-.14-11.8c.38-6.15,3.51-10.68,8.9-13.65.28-.15.54-.34.89-.57a88,88,0,0,0-11.32-16.67c-5.4-6-11.64-7.37-19.45-5.2-9,2.5-12.68,8.8-14.15,17-.82,4.62-.94,9.36-1.41,14.38a32.69,32.69,0,0,1-11.61,1.4c-10.1-.66-18.2-5.53-25.2-12.38-20.1-19.66-21.82-52-3.87-74.35,11.43-14.24,26.4-21.25,44.73-20.54,11.88.46,22,5.51,31.4,12.46a93.56,93.56,0,0,1,20.5,21,9.87,9.87,0,0,0,2.15,2.36c-.2-.61-.38-1.22-.59-1.82-3.43-9.94-7.5-19.72-10.18-29.86-6.45-24.39-.2-46,16-64.92,7.32-8.55,16.17-15.42,24.85-22.48,5.87-4.77,11.81-9.45,17.83-14.27,2.19,1.77,4.42,3.52,6.59,5.34,9.85,8.27,20,16.18,29.44,24.93C270,206.42,279,222,280.77,241.11c1.14,12.32-1,24.23-5.47,35.72-2.81,7.28-5.89,14.47-8.84,21.7a4.16,4.16,0,0,0-.43,2.13l1.28-1.9c7.34-11,15.73-21,26.84-28.46,31.5-21,74.44-4.39,83.38,32.43,4.45,18.29,1.07,35-11.23,49.6-7,8.3-16.1,13.18-26.79,15.14-4.32.79-8.59,1.8-13.23,2.79-.25-3.38-.59-6.74-.7-10.12a42.72,42.72,0,0,0-2.32-13.49c-4.95-13.42-21.11-15.93-30.62-9.11a11.82,11.82,0,0,0-2.69,2.73,72.11,72.11,0,0,0-4.88,7.44c-1.4,2.59-2.38,5.41-3.6,8.26l1.33.36a16.53,16.53,0,0,1,12.57,15.21,74.37,74.37,0,0,1,0,10.66c-.63,8.84-7.17,15.1-16.05,15.64l-1.15.09c1.44,6.49,9,12.83,16.2,13,5.27.11,10.56-.55,15.83-.87.76-.05,1.51-.17,2.29-.26-.28,14.75-8.67,28.3-25,31.08-11.08,1.9-19.65-2.29-25.83-11.42-2.63-3.89-4.72-8.14-7.28-12.63.27.79.37,1.2.54,1.57,2.31,5.2,4.5,10.44,7,15.55,2.05,4.22,1.51,8.17-.68,12a80.18,80.18,0,0,1-14,18,86.32,86.32,0,0,1-20.55,14.77c-4.22,2.2-8.63,2.55-12.87.38-14.67-7.49-26.56-18-34.86-32.41a14.13,14.13,0,0,1-.79-13c1.07-2.59,2.21-5.15,3.46-8.05-2.14,2.76-3.89,5.33-6,7.62-12.87,14.3-35.37,8.95-43.55-5.95-3.09-5.65-4.64-11.71-5.62-18.23,3.1.58,6,1.29,9,1.66a74.1,74.1,0,0,0,9.65.62,14.6,14.6,0,0,0,10.94-4.68C158.62,403.92,160.68,400.79,163.23,397.46ZM220,355.81V171.18c-.5.33-.83.51-1.11.74C212.61,177,206.28,182,200,187.1c-8.13,6.63-16,13.53-22.22,22.09-10.22,14.05-14.7,29.56-12.23,46.92a98.36,98.36,0,0,0,6,21.4c8.37,21.74,16.9,43.42,25.38,65.11,1.73,4.43,3.52,8.84,5.25,13.19Zm2.86,40.89h23.86c10.54,0,21.08.05,31.62,0,8.66-.05,15.23-6.06,15.83-14.63a70.17,70.17,0,0,0-.06-10.85,15.38,15.38,0,0,0-15.47-14.15q-55.68,0-111.36,0A15.41,15.41,0,0,0,152,370.72a86.2,86.2,0,0,0-.26,9.1c0,10.25,6.63,16.88,16.84,16.88Zm-41.62-66.87a11.43,11.43,0,0,0-.34-1.29c-2.38-5.71-4.43-11.6-7.24-17.1-8-15.72-19.08-28.82-34.42-38-9.69-5.78-20.08-8.22-31.24-6.23-17.28,3.09-29.37,13.06-36.6,28.89A48.78,48.78,0,0,0,83,353a37.74,37.74,0,0,0,10.74,7c-.56-2-1.16-3.68-1.5-5.43-1.46-7.39-.44-14.67,1.16-21.9,2.14-9.71,5.19-19,11.61-26.95,9.34-11.57,21.21-15,35.06-9.71,11.74,4.51,21,12.59,29.68,21.34C173.66,321.26,177.24,325.43,181.27,329.83Zm166.12,29.24c.78-.31,1.19-.44,1.57-.63a41.21,41.21,0,0,0,14.1-11.3,49.16,49.16,0,0,0,2.86-56.83c-11-17.29-27-25-47.46-23-12.32,1.25-22.29,7.37-30.95,15.88-11.83,11.64-20.51,25.37-26.82,40.66-1,2.39-1.82,4.85-2.72,7.28,3.08-3.1,5.8-6.38,8.68-9.52,8.65-9.43,17.87-18.18,29.34-24.17,5.92-3.09,12.15-5.13,18.94-4.73,8.87.52,15.53,5.12,21,11.77,9.28,11.3,12.19,24.86,13.65,38.89A30.81,30.81,0,0,1,347.39,359.07ZM220,474.92c.07-.91.13-1.35.13-1.79q0-36.37,0-72.76c0-1.51-.56-1.84-1.93-1.82-5.37.06-10.74.05-16.11,0A2,2,0,0,0,200,399.9q-8,17.75-16.12,35.44a9.2,9.2,0,0,0,.63,9.19c7.69,12.85,18.49,22.3,31.64,29.19A23.74,23.74,0,0,0,220,474.92Zm-32.7-76.83c-2.13-.6-3.29-.12-4.25,1.75a56.73,56.73,0,0,1-11.18,15c-5.08,4.85-10.77,8.39-18.09,8.65-6.21.22-11.82-1.62-17.17-4.56l-1.87-1-.5.46a74.55,74.55,0,0,0,4.29,7.93c8.71,12.37,25.77,12.72,34.75.6a73.42,73.42,0,0,0,6.88-12.08C182.78,409.38,185,403.72,187.32,398.09Zm118,20.12c-3,1.54-5.85,3.24-8.88,4.48-10.21,4.17-19.68,3-28.23-4.24A59.27,59.27,0,0,1,256.1,403.9l-1.29-2.12c3.23,8.34,6.59,16.59,11.49,24.06,6,9.15,15,11.91,25.16,7.89C298.69,430.89,303.13,425.55,305.3,418.21Zm-55.74-11.57.44-.2-3.79-8.5-.56.25Q247.6,402.42,249.56,406.64Zm-58.38-2.72.36.24,2.79-6-.6-.26Z"/><path class="cls-2" d="M424.69,521.06a16.14,16.14,0,0,0,10,0c-3.78,6.48-3.78,22.91-.52,30,6.79-6.75,6.85-19.77,10-30h4.18c3.14,10.36,4.54,22.31,8.92,31.46-4.18-.72-5.37-.86-9.43,0,2.57-2.68,1.32-8.13,0-11.3h-5.24c-2.48,2.87-3.17,8.87-.52,11.3-5.8-.27-11.09-.91-17.32,0C428.81,545.92,428.59,527.72,424.69,521.06Zm17.84,18.19c1.64-.1,3.84.33,4.71-.49-.74-3.55-.86-7.72-2.61-10.32C444.28,532.38,442.48,535,442.53,539.25Z"/><path class="cls-2" d="M321.92,520.1c4,1.49,13.89,1.62,17.83,0-.5,3.61.23,5.51.53,9.33-2.91-1-1.2-6.4-5.77-5.9-1.37,7.72-3,24.1,2.09,29a28.34,28.34,0,0,0-11.53,0c-.09-2.22,2.78-1.68,3.16-3.43V523.53c-4.61-.54-4.88,3-5.77,5.9C320.49,527.9,323.34,523.14,321.92,520.1Z"/><path class="cls-2" d="M134.74,520.58a40.08,40.08,0,0,0-.52,8.85c-2.74-2-.92-7.24-5.23-6.87-1.56.13-3.13,2.43-3.17,4.41,0,4.89,10.17,7.28,10.5,15.72.21,5.19-.73,6.61-5.24,10.31-4,.77-6.12-1.64-8.92-.48.43-4-.11-6.23,0-10.81,3.2,2.52,1.12,9.67,6.3,9.33,2.88-.19,3.88-3.82,3.14-6.86-.86-3.52-6.72-4.27-8.91-8.86s-.55-11.45,1.57-13.27C127.24,519.53,130.29,521.86,134.74,520.58Z"/><path class="cls-2" d="M362.3,521.06c17.11-4,16,29.78,4.72,31.94C350.13,556.25,350,523.94,362.3,521.06Zm2.63,30c3.47-.2,4.5-6.95,4.7-8.83.83-7.53,0-17.19-4.19-19.65C356.72,523.06,357.82,551.46,364.93,551Z"/><path class="cls-2" d="M392.19,552c1.59,3.42,4.75,5.36,9.44,5.88-6,7.44-10.87-.24-15.22-4.41-1.53-1.47-4.33-2.43-5.24-3.44-7.34-8.44-2.66-38.16,12.59-28C402.36,527.78,401,547.16,392.19,552Zm-3.67-1c7.45-.35,6.07-27.57.53-28.48C380.39,523.09,381.54,551.37,388.52,551Z"/><path class="cls-2" d="M0,521.06c3.62,1.5,7,.08,10,.51C6,526,5.55,549,12.06,549.57c6.69.6,6.37-12,5.77-20.14-.32-4.23-1.78-6.17-2.1-8.37,2.63,1.19,3.95.64,6.82,0-6.6,9.19,2.9,33-12.08,31.94-6.8-.46-7.56-6.87-7.86-13.26-.27-6,1.95-13.89-2.61-17.18Z"/><path class="cls-2" d="M23.6,521.06c3,.71,3.43.84,6.29,0,3.68,7.06,7.56,13.89,11,21.15,1-6.63,1.41-17.05-2.09-21.15a10.53,10.53,0,0,0,7.34,0C41.29,528,44.4,542.38,43.53,553c-4.9-.2-6.62-6.8-8.4-10.31-2.18-4.3-4.08-8.52-6.3-12.28-.37,6.58-1.31,17.93,2.64,22.11a14.61,14.61,0,0,0-7.87,0C27.74,546.2,27.6,527.42,23.6,521.06Z"/><path class="cls-2" d="M47.19,521.06a18,18,0,0,0,10.49,0c-4.11,6.2-4.11,25.28,0,31.46a21.65,21.65,0,0,0-10.49,0C51.39,546.25,51.16,527.39,47.19,521.06Z"/><path class="cls-2" d="M58.18,521.06a15.44,15.44,0,0,0,9.46,0c-3.32,6.27,1.53,14.45,2.62,21.15,1.31-6.3,5.54-15,2.1-21.15,7,.92,13.11.48,22,0,1.08,1.63.29,5,.53,7.38-1.91-1.81-1.63-5.68-6.82-4.42-1.21,2.63-.18,7.37-.51,10.82,3.49.66,4.69-.84,5.24-3,1.43,1,.38,7.5.51,9.34-1.58-1.3-1.12-4.51-5.24-3.44-.86,3.09-1.25,10,1,11.79,5.74,1.27,5-3.46,7.34-5.39-.15,3.19-.48,5.72-.52,7.86-6,1.73-11.12-1.36-16.26.48,4.07-5.51,4-23.81.53-30-4.79,2.35-4.9,9.1-6.29,14.73-.66,2.65-1.48,5.72-2.1,8.34-.56,2.41,0,6.32-3.14,6.89C63.8,543.34,63.23,530.12,58.18,521.06Z"/><path class="cls-2" d="M97.52,521.06c5.66,2.25,13.63-2.76,17.3,2.47,2.74,3.9.87,10.26-2.1,13.76,1.26,6.34,3.55,11.74,7.88,15.23-1.68,1.1-4.94.27-6.82,0-4.14-3-2.58-11.34-7.35-13.76-2.56,3.72-.56,11.2,1.58,13.76a21.27,21.27,0,0,0-10,0C102,546,102.39,526.94,97.52,521.06Zm7.87,15.74c7.81,1.07,6-12.08,2.1-13.76h-1.58C104.74,526.69,105.7,532.33,105.39,536.8Z"/><path class="cls-2" d="M137.89,521.06a18,18,0,0,0,10.49,0c-4.08,6.29-4.08,25.19,0,31.46a21.65,21.65,0,0,0-10.49,0C142.08,546.41,142,527.2,137.89,521.06Z"/><path class="cls-2" d="M150,521.06c1.88.06,3,.78,4.72,1,22.49-8,23.25,30.67,5.75,31-4.37.09-5.57-2.43-10.47-.48C153.69,545.06,153.69,528.54,150,521.06Zm7.86,2c-.92,3.8-.53,10.11-.53,15.72,0,4.61-1.31,10.42,2.1,11.79,9.88.26,10.8-26.89-.51-27.51Z"/><path class="cls-2" d="M185.07,521.06c3,9.81,4.06,21.44,8.4,30,3.81-.67,2.63-6.88,2.63-11.79,0-7.3,1-15.1-2.63-18.19,2.22-.09,3.39.77,5.24,1,24.43-9.29,22.81,40,0,29.48-4.84,2.27-9.42-.79-14.15,1,2.69-2.75.88-6.86.51-10.81-1.25-.94-4.2-.31-6.28-.49-1.68,3.26-2.68,8.43-.52,11.3-3.46-.69-3.36-.69-6.82,0,5-8.81,6.7-20.6,9.44-31.46Zm17.84,2h-1.06c0,.63-.66.67-.51,1.47.95,8.29-2,20.19,1.57,26C213.5,551.23,214.09,523.9,202.91,523Zm-24.12,15.72c1,.87,3.47.36,5.24.49-.71-3.75-1-7.86-2.62-10.81C180.6,532,179.88,535.52,178.79,538.76Z"/><path class="cls-2" d="M226.5,521.06c5.28,2.35,8.61-1.23,14.16,0,11.49,2.57,12.49,31.1-2.63,31.94-4,.22-5.44-2.26-11.53-.48C230.64,546.2,230.5,527.42,226.5,521.06Zm8.39,29.49c11.53,2.11,12.19-27.55.53-27.51C233.32,530.11,234.38,542.67,234.89,550.55Z"/><path class="cls-2" d="M250.63,521.06c4.77,2.12,9.82-1.17,15.19.51-1.11,2.49.75,4.81-.52,6.87-2,.1-.55-3.08-1.57-3.93A12.13,12.13,0,0,0,259,524c-1.22,2.63-.17,7.37-.52,10.82,4.15,1.1,3.95-1.88,5.76-3a83.14,83.14,0,0,0,0,9.34c-1.87-1-1.17-4.47-5.24-3.44-1,2.75-.7,8.51,0,11.31,5.47,2.56,6.12-2.93,8.38-4.91-.31,2.78-.27,5.94-1,8.34-6.81.52-10.51-1.46-15.72,0C254.82,546.25,254.59,527.39,250.63,521.06Z"/><path class="cls-2" d="M285.23,521.06h4.19c3.1,9.71,4.25,21.25,8.39,30,5.76-4,2.46-18.28,2.61-26-.1-2-2.74-1.69-2.61-4,3.07.25,3.76,1.44,6.29,0,4.06,6.53,7.44,13.67,11,20.65.73-6.24,1.84-17.12-2.08-20.65,3.25,1.08,4.4.59,7.86,0-4.78,7-2.89,21.67-2.62,31.94-5.63-.25-6.58-6.71-8.39-10.31-2.13-4.25-4.73-8.26-6.3-12.28-1.08,5.28-.58,13.3,0,18.68,0,2,3.06,1.07,2.63,3.43-6.55,0-11.52-1-17.31,0,2.58-2.68,1.33-8.13,0-11.3h-5.24c-2.5,2.16-2.85,8.81-.51,11.3-3.84-.43-3.78-.87-7.36,0C280.75,543.72,282.7,532.14,285.23,521.06Zm-1.58,18.19h4.73c-.58-3.87-.89-8-2.63-10.81C285.46,532.44,283.68,535,283.65,539.25Z"/><path class="cls-2" d="M341.84,521.06a16.17,16.17,0,0,0,10,0c-4,6.61-4,24.86,0,31.46a21.27,21.27,0,0,0-10,0C345.85,545.56,345.65,528.07,341.84,521.06Z"/><path class="cls-2" d="M401.1,521.06a14.7,14.7,0,0,0,9.45,0c-2.72,3.85-4.95,28.4,2.61,28.51s6.52-23.86,2.62-28.51a10.56,10.56,0,0,0,7.35,0c-6.16,7.51,1.77,28.22-8.4,31.94C396.33,555.35,407.29,530.18,401.1,521.06Z"/><path class="cls-1" d="M459,586.88c-1.73,3.68-6.11,4.88-9,7.51.78,3.44,3.32,7.43,2.82,10.6-3.48.13-6.15-4.2-9.9-5.3-4,1.3-5.6,4.75-9.89,5.75-.78-3.43,2.24-7,2.82-10.61-2-3.6-7.69-3.69-8.49-8.38h10.85c2.49-2.24,1.81-7.45,4.71-9.29,2.7,1.9,2.52,6.47,4.25,9.29C451,586.7,455.93,585.9,459,586.88Z"/><path class="cls-1" d="M411.35,586.88c-.16,3.28-5.87,5-8.48,7.51.6,3.63,3.16,7.59,2.84,10.6-3.63.27-6.37-4-9.9-5.3-3.72,1.28-6.52,5.61-9.9,5.75-.6-3.3,1.95-7.27,2.83-10.61-2.1-2.9-8-4.62-8.48-7.51,1.79-2,7.49-.34,10.84-.87,1.81-2.59,2.37-6.32,3.77-9.29h1.41a45,45,0,0,1,3.31,9.29C403.36,586.74,408.38,585.85,411.35,586.88Z"/><path class="cls-1" d="M362.8,586.88c-.21,3.46-6.47,4.74-8.48,8,.52,3.56,3.38,7.07,2.37,10.61-3.86-1.25-6-4.07-9.44-5.75-3.84,1-6.18,5.69-9.9,5.3-1.14-1.87,2-7.24,2.83-10.16-2.51-3.09-7.41-4-8.95-8,2.88-1,7.65-.18,11.31-.43,1.52-2.86,2.45-6.25,3.77-9.29h1.42c1.19,3,2.3,6.09,3.29,9.29C354.81,586.74,359.82,585.85,362.8,586.88Z"/><path class="cls-1" d="M316.86,586.27c-1.73,3.67-6.12,4.88-9,7.51.79,3.44,3.32,7.43,2.83,10.6-3.49.13-6.15-4.21-9.9-5.3-4,1.3-5.61,4.75-9.9,5.75-.78-3.43,2.24-7,2.82-10.61-2-3.61-7.69-3.69-8.48-8.39h10.85c2.48-2.23,1.8-7.45,4.71-9.28,2.69,1.89,2.51,6.47,4.24,9.28C308.88,586.09,313.81,585.29,316.86,586.27Z"/><path class="cls-1" d="M271.12,586.14c-1.73,3.67-6.11,4.87-8.95,7.51.78,3.43,3.32,7.43,2.82,10.59-3.48.13-6.15-4.2-9.9-5.3-4,1.3-5.6,4.75-9.89,5.75-.78-3.43,2.24-7,2.82-10.61-2-3.6-7.69-3.69-8.49-8.38h10.85c2.49-2.23,1.81-7.45,4.71-9.29,2.69,1.9,2.52,6.47,4.25,9.29C263.15,586,268.07,585.16,271.12,586.14Z"/><path class="cls-1" d="M223.49,586.14c-.16,3.27-5.87,5-8.48,7.51.6,3.62,3.16,7.58,2.84,10.59-3.63.28-6.37-4-9.9-5.3-3.72,1.28-6.52,5.61-9.9,5.75-.6-3.29,1.95-7.26,2.83-10.61-2.1-2.9-8-4.62-8.48-7.51,1.79-2,7.49-.34,10.84-.87,1.81-2.58,2.37-6.31,3.77-9.29h1.41a45,45,0,0,1,3.31,9.29C215.5,586,220.52,585.11,223.49,586.14Z"/><path class="cls-1" d="M174.94,586.14c-.21,3.45-6.47,4.73-8.48,7.94.52,3.56,3.38,7.07,2.37,10.61-3.86-1.25-6-4.07-9.44-5.75-3.84,1-6.18,5.69-9.9,5.3-1.14-1.87,2-7.23,2.83-10.16-2.51-3.09-7.41-4-8.95-7.94,2.88-1,7.65-.19,11.31-.44,1.52-2.86,2.45-6.25,3.77-9.29h1.42c1.19,3,2.3,6.09,3.29,9.29C167,586,172,585.11,174.94,586.14Z"/><path class="cls-1" d="M129,585.53c-1.73,3.67-6.11,4.87-9,7.5.79,3.44,3.32,7.43,2.83,10.6-3.49.13-6.15-4.21-9.9-5.3-4,1.3-5.61,4.75-9.9,5.75-.78-3.43,2.24-7,2.82-10.61-2-3.6-7.69-3.69-8.49-8.38h10.86c2.48-2.24,1.8-7.45,4.71-9.29,2.69,1.9,2.51,6.47,4.24,9.29C121,585.34,126,584.54,129,585.53Z"/><path class="cls-1" d="M81.37,585.53c-.17,3.27-5.88,5-8.48,7.5.59,3.63,3.15,7.59,2.83,10.6-3.63.27-6.37-4-9.9-5.3-3.72,1.28-6.51,5.61-9.89,5.75-.61-3.29,1.94-7.27,2.82-10.61-2.1-2.9-8-4.62-8.48-7.51,1.79-2,7.49-.34,10.84-.87,1.81-2.59,2.37-6.32,3.77-9.29h1.41a44.46,44.46,0,0,1,3.31,9.29C73.37,585.38,78.4,584.49,81.37,585.53Z"/><path class="cls-1" d="M32.82,585.53c-.22,3.45-6.47,4.73-8.48,7.94.51,3.56,3.38,7.07,2.37,10.61-3.87-1.25-6-4.07-9.45-5.75-3.83,1-6.17,5.69-9.89,5.3-1.15-1.87,2-7.24,2.82-10.16-2.5-3.09-7.41-4-8.94-7.94,2.87-1,7.64-.19,11.3-.44,1.53-2.86,2.45-6.25,3.77-9.29h1.42c1.2,3,2.3,6.09,3.29,9.29C24.82,585.38,29.84,584.49,32.82,585.53Z"/></g></g></svg>