<svg xmlns="http://www.w3.org/2000/svg" viewBox="0 0 361.5 385.66"><defs><style>.cls-1{fill:#010001;}</style></defs><g id="Capa_2" data-name="Capa 2"><g id="Capa_1-2" data-name="Capa 1"><path class="cls-1" d="M53.09,68.19v53.74h58.66V159L93.53,146.4v-5H34.83V53.19s34.69-1,65.74-53.19H276.42V145.49l-19.88,6v-133H111.11S93.82,58.56,53.09,68.19Z"/><path class="cls-1" d="M93.41,211.72l.12,31.72H0V385.66H361.5V241.59H276.42V219.05s-9.5-6.53-19.88-1.05v40H339V367.19H22.48V260.64h89.27V215.81S99.52,211,93.41,211.72Z"/><path class="cls-1" d="M122.51,246.25h5.73v1.16h-4.36V251h4v1.14h-4v4.82h-1.37Z"/><path class="cls-1" d="M135.37,246.25v6.31c0,2.39,1.06,3.4,2.48,3.4,1.58,0,2.59-1.05,2.59-3.4v-6.31h1.39v6.22c0,3.27-1.72,4.61-4,4.61s-3.82-1.25-3.82-4.55v-6.28Z"/><path class="cls-1" d="M148,256.91V246.25h1.5l3.42,5.39a31,31,0,0,1,1.91,3.46h0c-.13-1.42-.16-2.72-.16-4.38v-4.46H156v10.66h-1.39l-3.38-5.41a32.09,32.09,0,0,1-2-3.56l0,0c.08,1.34.11,2.62.11,4.39v4.56Z"/><path class="cls-1" d="M162.2,246.4a19.12,19.12,0,0,1,2.92-.23,6.1,6.1,0,0,1,4.32,1.33,4.9,4.9,0,0,1,1.5,3.83,5.65,5.65,0,0,1-1.53,4.14A6.6,6.6,0,0,1,164.7,257a24.9,24.9,0,0,1-2.5-.12Zm1.38,9.42a9.14,9.14,0,0,0,1.39.07c2.94,0,4.53-1.64,4.53-4.52,0-2.51-1.4-4.1-4.31-4.1a7.74,7.74,0,0,0-1.61.14Z"/><path class="cls-1" d="M178,253.56l-1.11,3.35h-1.42l3.62-10.66h1.66l3.63,10.66h-1.47l-1.13-3.35Zm3.49-1.08-1-3.07c-.24-.69-.4-1.32-.56-1.94h0c-.16.63-.33,1.28-.53,1.93l-1,3.08Z"/><path class="cls-1" d="M189.76,246.4a19,19,0,0,1,2.92-.23A6.12,6.12,0,0,1,197,247.5a4.94,4.94,0,0,1,1.5,3.83,5.62,5.62,0,0,1-1.54,4.14,6.56,6.56,0,0,1-4.71,1.53,24.53,24.53,0,0,1-2.49-.12Zm1.37,9.42a9.21,9.21,0,0,0,1.39.07c2.94,0,4.54-1.64,4.54-4.52,0-2.51-1.41-4.1-4.32-4.1a7.81,7.81,0,0,0-1.61.14Z"/><path class="cls-1" d="M213.18,251.47c0,3.67-2.23,5.61-5,5.61s-4.79-2.18-4.79-5.4c0-3.39,2.1-5.6,4.95-5.6S213.18,248.31,213.18,251.47Zm-8.27.17c0,2.28,1.23,4.32,3.4,4.32s3.41-2,3.41-4.43c0-2.12-1.1-4.33-3.4-4.33S204.91,249.3,204.91,251.64Z"/><path class="cls-1" d="M231.41,251.91h-4.14v3.84h4.62v1.16h-6V246.25h5.75v1.16h-4.38v3.36h4.14Z"/><path class="cls-1" d="M237.46,256.91V246.25H239l3.42,5.39a31,31,0,0,1,1.91,3.46h0c-.12-1.42-.16-2.72-.16-4.38v-4.46h1.3v10.66h-1.39l-3.38-5.41a30.44,30.44,0,0,1-2-3.56l0,0c.08,1.34.11,2.62.11,4.39v4.56Z"/><path class="cls-1" d="M142.44,261.9h-.05l-2.77,1.5-.42-1.65,3.49-1.87h1.84v16h-2.09Z"/><path class="cls-1" d="M166.36,274.35a9.27,9.27,0,0,0,1.74-.08,6,6,0,0,0,3.35-1.55,7,7,0,0,0,2.12-4.25h-.08a4.68,4.68,0,0,1-3.76,1.72,4.63,4.63,0,0,1-4.72-4.9,5.48,5.48,0,0,1,5.46-5.68c3.27,0,5.28,2.66,5.28,6.74a10.1,10.1,0,0,1-2.75,7.5,7.93,7.93,0,0,1-4.65,2.14,9.84,9.84,0,0,1-2,.12Zm.79-9.2a3.07,3.07,0,0,0,3.07,3.39,3.58,3.58,0,0,0,3.15-1.67,1.46,1.46,0,0,0,.2-.79c0-2.73-1-4.82-3.28-4.82C168.45,261.26,167.15,262.88,167.15,265.15Z"/><path class="cls-1" d="M197.16,261.9h0l-2.78,1.5-.42-1.65,3.49-1.87h1.85v16h-2.09Z"/><path class="cls-1" d="M219.62,271.81a4.58,4.58,0,0,1,3.17-4.28l0-.07a4,4,0,0,1-2.53-3.59c0-2.53,2.14-4.26,4.94-4.26,3.1,0,4.65,1.95,4.65,3.94a4.08,4.08,0,0,1-2.63,3.74v.07c2,.79,3.22,2.19,3.22,4.13,0,2.78-2.39,4.65-5.44,4.65C221.64,276.14,219.62,274.15,219.62,271.81Zm8.61-.1c0-1.94-1.35-2.87-3.52-3.49-1.87.54-2.87,1.77-2.87,3.3a3,3,0,0,0,3.19,3.05A2.9,2.9,0,0,0,228.23,271.71Zm-5.95-8c0,1.6,1.2,2.46,3.05,2.95a3.15,3.15,0,0,0,2.43-2.9,2.48,2.48,0,0,0-2.7-2.61A2.54,2.54,0,0,0,222.28,263.72Z"/><path class="cls-1" d="M124.91,280.2c-4.91-1.68-8.4-4.17-10.45-8.22a17,17,0,0,1-1.91-6,81.69,81.69,0,0,1-.14-11.81c.37-6.14,3.51-10.68,8.9-13.64.28-.16.54-.35.89-.57a87.72,87.72,0,0,0-11.32-16.67c-5.4-6-11.64-7.37-19.45-5.2-9,2.49-12.69,8.8-14.15,17-.82,4.62-.94,9.36-1.41,14.37a32.46,32.46,0,0,1-11.61,1.41c-10.1-.67-18.2-5.54-25.2-12.38-20.11-19.67-21.82-52-3.87-74.36,11.43-14.23,26.39-21.25,44.72-20.54,11.88.46,22,5.51,31.41,12.46a93.4,93.4,0,0,1,20.5,21,9.62,9.62,0,0,0,2.15,2.35c-.2-.6-.39-1.21-.59-1.81-3.44-9.95-7.5-19.72-10.18-29.86-6.45-24.4-.21-46,16-64.92,7.33-8.55,16.18-15.43,24.85-22.48,5.87-4.77,11.81-9.46,17.84-14.27,2.19,1.77,4.42,3.51,6.58,5.33,9.86,8.27,20,16.19,29.45,24.93,13.77,12.79,22.75,28.39,24.52,47.48,1.13,12.32-1,24.23-5.47,35.72-2.81,7.29-5.89,14.47-8.85,21.7a4.18,4.18,0,0,0-.42,2.13c.42-.63.85-1.26,1.27-1.9,7.35-11,15.73-21,26.85-28.45,31.49-21,74.43-4.4,83.38,32.43,4.44,18.29,1.06,35.05-11.23,49.59-7,8.31-16.1,13.18-26.8,15.15-4.31.79-8.58,1.8-13.23,2.78-.24-3.37-.59-6.74-.7-10.11a42.5,42.5,0,0,0-2.32-13.5c-4.94-13.41-21.1-15.92-30.62-9.11a12,12,0,0,0-2.68,2.74,70,70,0,0,0-4.88,7.44c-1.4,2.59-2.39,5.4-3.61,8.26l1.34.36a16.53,16.53,0,0,1,12.57,15.21,75.85,75.85,0,0,1,0,10.66c-.63,8.83-7.17,15.09-16.05,15.63l-1.15.1c1.43,6.49,9,12.83,16.2,13,5.27.11,10.55-.54,15.83-.87.76,0,1.51-.17,2.28-.25-.27,14.75-8.66,28.29-25,31.08-11.08,1.89-19.66-2.29-25.83-11.42-2.63-3.89-4.72-8.15-7.28-12.63.27.79.37,1.19.54,1.57,2.31,5.19,4.5,10.44,7,15.55,2,4.22,1.52,8.17-.67,12a80.47,80.47,0,0,1-14,18,86.66,86.66,0,0,1-20.56,14.77c-4.21,2.19-8.62,2.54-12.86.38-14.68-7.49-26.57-18-34.86-32.42a14.11,14.11,0,0,1-.79-13c1.07-2.59,2.21-5.16,3.46-8.05-2.14,2.75-3.9,5.33-6,7.62-12.88,14.29-35.37,8.95-43.55-6-3.1-5.64-4.64-11.7-5.62-18.23,3.1.59,6,1.3,9,1.66a74.33,74.33,0,0,0,9.65.62,14.58,14.58,0,0,0,10.94-4.68C120.3,286.67,122.37,283.53,124.91,280.2Zm56.81-41.65V53.93a13.12,13.12,0,0,0-1.11.74c-6.31,5-12.64,10.07-18.9,15.18-8.13,6.63-16,13.53-22.22,22.08-10.22,14-14.7,29.56-12.24,46.93a97.58,97.58,0,0,0,6,21.39c8.37,21.74,16.9,43.42,25.38,65.12,1.73,4.43,3.51,8.84,5.25,13.18Zm2.85,40.89h23.87c10.54,0,21.08.05,31.62,0,8.66-.05,15.23-6.07,15.83-14.64a71.45,71.45,0,0,0-.06-10.85,15.39,15.39,0,0,0-15.47-14.15H129a15.41,15.41,0,0,0-15.32,13.68,86.12,86.12,0,0,0-.26,9.1c0,10.25,6.62,16.87,16.84,16.87ZM143,212.57c-.18-.69-.23-1-.34-1.28-2.39-5.72-4.44-11.6-7.24-17.1-8-15.73-19.08-28.82-34.43-38C91.27,150.43,80.88,148,69.72,150c-17.29,3.09-29.37,13.05-36.6,28.88a48.79,48.79,0,0,0,11.6,56.92,38,38,0,0,0,10.75,7c-.56-2-1.16-3.69-1.51-5.43-1.45-7.39-.43-14.67,1.16-21.9,2.15-9.72,5.2-19,11.61-27,9.35-11.56,21.22-15,35.07-9.7,11.74,4.5,21,12.59,29.68,21.33C135.34,204,138.92,208.18,143,212.57Zm166.12,29.25c.77-.31,1.18-.44,1.56-.63a41.15,41.15,0,0,0,14.11-11.31,49.16,49.16,0,0,0,2.86-56.83c-11-17.28-27-25-47.46-23-12.32,1.26-22.29,7.38-30.95,15.89-11.84,11.64-20.52,25.37-26.82,40.65-1,2.4-1.82,4.86-2.73,7.28,3.09-3.1,5.81-6.38,8.69-9.52,8.64-9.42,17.86-18.17,29.33-24.16,5.92-3.09,12.16-5.13,18.95-4.73,8.87.52,15.53,5.11,21,11.76,9.28,11.3,12.19,24.87,13.65,38.89A30.84,30.84,0,0,1,309.08,241.82ZM181.71,357.66c.07-.91.13-1.35.13-1.78q0-36.39,0-72.76c0-1.52-.56-1.84-1.94-1.82-5.36.06-10.73.05-16.1,0a2,2,0,0,0-2.19,1.35q-8,17.75-16.12,35.43a9.2,9.2,0,0,0,.63,9.19c7.68,12.86,18.48,22.31,31.64,29.2A22.59,22.59,0,0,0,181.71,357.66ZM149,280.84c-2.14-.6-3.29-.12-4.26,1.75a56.48,56.48,0,0,1-11.17,15c-5.08,4.84-10.77,8.38-18.09,8.65-6.22.22-11.83-1.62-17.18-4.56l-1.87-1-.49.45a71.88,71.88,0,0,0,4.29,7.93c8.7,12.38,25.77,12.73,34.74.6a72.66,72.66,0,0,0,6.89-12.08C144.47,292.12,146.63,286.46,149,280.84ZM267,301c-3,1.53-5.86,3.23-8.88,4.47-10.21,4.18-19.69,3-28.24-4.24a59.27,59.27,0,0,1-12.08-14.55l-1.3-2.12c3.23,8.35,6.6,16.59,11.5,24.06,6,9.15,15,11.92,25.16,7.9C260.37,313.63,264.81,308.3,267,301Zm-55.74-11.57.44-.2-3.79-8.5-.56.25Q209.29,285.15,211.25,289.39Zm-58.38-2.73.36.24,2.79-6-.6-.26Z"/></g></g></svg>